HIERARCHY
ROOT Root
{
  OFFSET 0.0 0.0 0.0
  CHANNELS 6 Xposition Yposition Zposition Zrotation Yrotation Xrotation
  JOINT Hips
  {
    OFFSET 0.0 100.0 0.0
    CHANNELS 6 Xposition Yposition Zposition Zrotation Yrotation Xrotation
    JOINT Spine1
    {
      OFFSET 5.003913 -0.037094 -0.013727
      CHANNELS 3 Zrotation Yrotation Xrotation
      JOINT Spine2
      {
        OFFSET 7.125363 -1e-06 0.0
        CHANNELS 3 Zrotation Yrotation Xrotation
        JOINT Chest
        {
          OFFSET 7.594027 1e-06 0.0
          CHANNELS 3 Zrotation Yrotation Xrotation
          JOINT Neck1
          {
            OFFSET 26.313086 -0.460272 -0.181672
            CHANNELS 3 Zrotation Yrotation Xrotation
            JOINT Neck2
            {
              OFFSET 8.045911 0.0 0.0
              CHANNELS 3 Zrotation Yrotation Xrotation
              JOINT Head
              {
                OFFSET 6.432774 0.0 0.0
                CHANNELS 3 Zrotation Yrotation Xrotation
                JOINT HeadEnd
                {
                  OFFSET 16.169773 0.06451 0.00362
                  CHANNELS 3 Zrotation Yrotation Xrotation
                }
                JOINT Jaw
                {
                  OFFSET 0.108741 3.12938 0.002639
                  CHANNELS 3 Zrotation Yrotation Xrotation
                }
                JOINT LeftEye
                {
                  OFFSET 4.45173 8.166359 3.206392
                  CHANNELS 3 Zrotation Yrotation Xrotation
                }
                JOINT RightEye
                {
                  OFFSET 4.436895 8.135758 -3.222429
                  CHANNELS 3 Zrotation Yrotation Xrotation
                }
              }
            }
          }
          JOINT LeftShoulder
          {
            OFFSET 23.218927 5.195579 1.621656
            CHANNELS 3 Zrotation Yrotation Xrotation
            JOINT LeftArm
            {
              OFFSET 15.902118 2e-06 -2e-06
              CHANNELS 3 Zrotation Yrotation Xrotation
              JOINT LeftForeArm
              {
                OFFSET 28.739307 0.0 -1e-06
                CHANNELS 3 Zrotation Yrotation Xrotation
                JOINT LeftHand
                {
                  OFFSET 27.093981 -4e-06 0.0
                  CHANNELS 3 Zrotation Yrotation Xrotation
                  JOINT LeftHandThumb1
                  {
                    OFFSET 2.276781 3.380274 0.83384
                    CHANNELS 3 Zrotation Yrotation Xrotation
                    JOINT LeftHandThumb2
                    {
                      OFFSET 4.705309 -1e-06 -1e-06
                      CHANNELS 3 Zrotation Yrotation Xrotation
                      JOINT LeftHandThumb3
                      {
                        OFFSET 2.798515 0.0 3e-06
                        CHANNELS 3 Zrotation Yrotation Xrotation
                        JOINT LeftHandThumbEnd
                        {
                          OFFSET 3.180793 4e-06 -4e-06
                          CHANNELS 3 Zrotation Yrotation Xrotation
                        }
                      }
                    }
                  }
                  JOINT LeftHandIndex1
                  {
                    OFFSET 3.247786 2.352677 0.137192
                    CHANNELS 3 Zrotation Yrotation Xrotation
                    JOINT LeftHandIndex2
                    {
                      OFFSET 6.367095 1e-06 0.0
                      CHANNELS 3 Zrotation Yrotation Xrotation
                      JOINT LeftHandIndex3
                      {
                        OFFSET 3.662364 0.0 0.0
                        CHANNELS 3 Zrotation Yrotation Xrotation
                        JOINT LeftHandIndex4
                        {
                          OFFSET 2.329242 4e-06 -4e-06
                          CHANNELS 3 Zrotation Yrotation Xrotation
                          JOINT LeftHandIndexEnd
                          {
                            OFFSET 2.767823 1e-06 0.0
                            CHANNELS 3 Zrotation Yrotation Xrotation
                          }
                        }
                      }
                    }
                  }
                  JOINT LeftHandMiddle1
                  {
                    OFFSET 3.163612 0.945023 -0.406112
                    CHANNELS 3 Zrotation Yrotation Xrotation
                    JOINT LeftHandMiddle2
                    {
                      OFFSET 6.276789 3e-06 0.0
                      CHANNELS 3 Zrotation Yrotation Xrotation
                      JOINT LeftHandMiddle3
                      {
                        OFFSET 4.35652 -1e-06 4e-06
                        CHANNELS 3 Zrotation Yrotation Xrotation
                        JOINT LeftHandMiddle4
                        {
                          OFFSET 2.996877 0.0 8e-06
                          CHANNELS 3 Zrotation Yrotation Xrotation
                          JOINT LeftHandMiddleEnd
                          {
                            OFFSET 2.323256 3e-06 -4e-06
                            CHANNELS 3 Zrotation Yrotation Xrotation
                          }
                        }
                      }
                    }
                  }
                  JOINT LeftHandRing1
                  {
                    OFFSET 2.882606 -0.309162 0.107445
                    CHANNELS 3 Zrotation Yrotation Xrotation
                    JOINT LeftHandRing2
                    {
                      OFFSET 6.033198 0.0 4e-06
                      CHANNELS 3 Zrotation Yrotation Xrotation
                      JOINT LeftHandRing3
                      {
                        OFFSET 4.350578 3e-06 0.0
                        CHANNELS 3 Zrotation Yrotation Xrotation
                        JOINT LeftHandRing4
                        {
                          OFFSET 2.651321 2e-06 -7e-06
                          CHANNELS 3 Zrotation Yrotation Xrotation
                          JOINT LeftHandRingEnd
                          {
                            OFFSET 1.937663 1e-06 -4e-06
                            CHANNELS 3 Zrotation Yrotation Xrotation
                          }
                        }
                      }
                    }
                  }
                  JOINT LeftHandPinky1
                  {
                    OFFSET 2.865315 -1.525436 0.575687
                    CHANNELS 3 Zrotation Yrotation Xrotation
                    JOINT LeftHandPinky2
                    {
                      OFFSET 5.54936 1e-06 -8e-06
                      CHANNELS 3 Zrotation Yrotation Xrotation
                      JOINT LeftHandPinky3
                      {
                        OFFSET 3.070974 0.0 -4e-06
                        CHANNELS 3 Zrotation Yrotation Xrotation
                        JOINT LeftHandPinky4
                        {
                          OFFSET 1.549672 1e-06 0.0
                          CHANNELS 3 Zrotation Yrotation Xrotation
                          JOINT LeftHandPinkyEnd
                          {
                            OFFSET 1.952123 0.0 0.0
                            CHANNELS 3 Zrotation Yrotation Xrotation
                          }
                        }
                      }
                    }
                  }
                }
              }
            }
          }
          JOINT RightShoulder
          {
            OFFSET 23.161716 5.296122 -1.380114
            CHANNELS 3 Zrotation Yrotation Xrotation
            JOINT RightArm
            {
              OFFSET -16.027195 -2e-06 1.1e-05
              CHANNELS 3 Zrotation Yrotation Xrotation
              JOINT RightForeArm
              {
                OFFSET -28.736639 4e-06 2e-06
                CHANNELS 3 Zrotation Yrotation Xrotation
                JOINT RightHand
                {
                  OFFSET -27.133619 6e-06 0.0
                  CHANNELS 3 Zrotation Yrotation Xrotation
                  JOINT RightHandThumb1
                  {
                    OFFSET -2.274328 -3.351035 -0.83067
                    CHANNELS 3 Zrotation Yrotation Xrotation
                    JOINT RightHandThumb2
                    {
                      OFFSET -4.703594 -3e-06 2e-06
                      CHANNELS 3 Zrotation Yrotation Xrotation
                      JOINT RightHandThumb3
                      {
                        OFFSET -2.794935 -4e-06 -3e-06
                        CHANNELS 3 Zrotation Yrotation Xrotation
                        JOINT RightHandThumbEnd
                        {
                          OFFSET -3.183852 4e-06 1e-06
                          CHANNELS 3 Zrotation Yrotation Xrotation
                        }
                      }
                    }
                  }
                  JOINT RightHandIndex1
                  {
                    OFFSET -3.253496 -2.33755 -0.127667
                    CHANNELS 3 Zrotation Yrotation Xrotation
                    JOINT RightHandIndex2
                    {
                      OFFSET -6.344434 0.0 0.0
                      CHANNELS 3 Zrotation Yrotation Xrotation
                      JOINT RightHandIndex3
                      {
                        OFFSET -3.654871 0.0 -8e-06
                        CHANNELS 3 Zrotation Yrotation Xrotation
                        JOINT RightHandIndex4
                        {
                          OFFSET -2.327586 -1e-06 0.0
                          CHANNELS 3 Zrotation Yrotation Xrotation
                          JOINT RightHandIndexEnd
                          {
                            OFFSET -2.770001 3e-06 8e-06
                            CHANNELS 3 Zrotation Yrotation Xrotation
                          }
                        }
                      }
                    }
                  }
                  JOINT RightHandMiddle1
                  {
                    OFFSET -3.168223 -0.944764 0.411762
                    CHANNELS 3 Zrotation Yrotation Xrotation
                    JOINT RightHandMiddle2
                    {
                      OFFSET -6.266691 -1e-06 -4e-06
                      CHANNELS 3 Zrotation Yrotation Xrotation
                      JOINT RightHandMiddle3
                      {
                        OFFSET -4.348901 0.0 0.0
                        CHANNELS 3 Zrotation Yrotation Xrotation
                        JOINT RightHandMiddle4
                        {
                          OFFSET -3.00024 2e-06 -4e-06
                          CHANNELS 3 Zrotation Yrotation Xrotation
                          JOINT RightHandMiddleEnd
                          {
                            OFFSET -2.321477 -4e-06 -4e-06
                            CHANNELS 3 Zrotation Yrotation Xrotation
                          }
                        }
                      }
                    }
                  }
                  JOINT RightHandRing1
                  {
                    OFFSET -2.885654 0.293261 -0.119232
                    CHANNELS 3 Zrotation Yrotation Xrotation
                    JOINT RightHandRing2
                    {
                      OFFSET -6.032835 -1e-06 -4e-06
                      CHANNELS 3 Zrotation Yrotation Xrotation
                      JOINT RightHandRing3
                      {
                        OFFSET -4.33881 0.0 -4e-06
                        CHANNELS 3 Zrotation Yrotation Xrotation
                        JOINT RightHandRing4
                        {
                          OFFSET -2.654903 -4e-06 -4e-06
                          CHANNELS 3 Zrotation Yrotation Xrotation
                          JOINT RightHandRingEnd
                          {
                            OFFSET -1.935122 0.0 4e-06
                            CHANNELS 3 Zrotation Yrotation Xrotation
                          }
                        }
                      }
                    }
                  }
                  JOINT RightHandPinky1
                  {
                    OFFSET -2.866241 1.503904 -0.60527
                    CHANNELS 3 Zrotation Yrotation Xrotation
                    JOINT RightHandPinky2
                    {
                      OFFSET -5.553177 -2e-06 0.0
                      CHANNELS 3 Zrotation Yrotation Xrotation
                      JOINT RightHandPinky3
                      {
                        OFFSET -3.062664 -1e-06 -4e-06
                        CHANNELS 3 Zrotation Yrotation Xrotation
                        JOINT RightHandPinky4
                        {
                          OFFSET -1.546529 2e-06 4e-06
                          CHANNELS 3 Zrotation Yrotation Xrotation
                          JOINT RightHandPinkyEnd
                          {
                            OFFSET -1.952341 0.0 -4e-06
                            CHANNELS 3 Zrotation Yrotation Xrotation
                          }
                        }
                      }
                    }
                  }
                }
              }
            }
          }
        }
      }
    }
    JOINT LeftLeg
    {
      OFFSET -8.443107 2.567604 10.043214
      CHANNELS 3 Zrotation Yrotation Xrotation
      JOINT LeftShin
      {
        OFFSET 43.229198 1e-06 -1e-06
        CHANNELS 3 Zrotation Yrotation Xrotation
        JOINT LeftFoot
        {
          OFFSET 42.298611 1e-06 1e-06
          CHANNELS 3 Zrotation Yrotation Xrotation
          JOINT LeftToeBase
          {
            OFFSET 14.165858 1e-06 0.0
            CHANNELS 3 Zrotation Yrotation Xrotation
            JOINT LeftToeEnd
            {
              OFFSET 6.7141 -0.234461 0.0
              CHANNELS 3 Zrotation Yrotation Xrotation
            }
          }
        }
      }
    }
    JOINT RightLeg
    {
      OFFSET -8.303923 2.592729 -10.047278
      CHANNELS 3 Zrotation Yrotation Xrotation
      JOINT RightShin
      {
        OFFSET -43.369682 0.0 1e-06
        CHANNELS 3 Zrotation Yrotation Xrotation
        JOINT RightFoot
        {
          OFFSET -42.260784 4e-06 2e-06
          CHANNELS 3 Zrotation Yrotation Xrotation
          JOINT RightToeBase
          {
            OFFSET -14.222245 -2e-06 -1e-06
            CHANNELS 3 Zrotation Yrotation Xrotation
            JOINT RightToeEnd
            {
              OFFSET -6.660062 0.232574 -2e-06
              CHANNELS 3 Zrotation Yrotation Xrotation
            }
          }
        }
      }
    }
  }
}
MOTION
Frames: 5
Frame Time: 0.03333333333333333
0.0 0.0 0.0 0.0 -0.0 0.0 -0.857415 99.794746 -0.546992 89.473206 1.491711 89.972343 -1.262579 -0.751793 -0.009006 -11.667523 -0.566596 0.013768 18.874968 1.203963 -1.771755 20.218428 0.585115 2.559968 -2.548683 -0.743111 0.072232 -36.847816 0.729381 -0.782828 6e-06 -0.0 -0.0 0.035088 -0.020935 -0.148216 0.071753 -0.036103 -0.176534 0.063627 -0.004889 -0.115031 -89.345581 -74.155098 107.04303 53.71505 -64.433418 -8.381065 27.820415 0.356381 0.398137 -9.176038 -2.778997 10.011819 17.636629 -26.322737 52.411194 -19.46666 -14.395597 29.410385 -1e-06 -8.774821 -0.0 16.884483 -17.927271 5.52006 -0.609776 -1.795654 -3.88933 -4.807088 -11.046811 -2.937852 4e-06 -20.976019 2e-06 -5.019972 -25.03356 -4.031877 6e-06 2e-06 0.0 -10.634533 -5.686969 -3.565587 10.573275 -17.922951 -3.1139 3e-06 -13.821209 1e-06 -0.501776 -31.181501 -4.027012 -11.16497 -59.984745 6.882476 -13.982713 -7.150198 -2.875044 13.77273 -8.401491 -3.218241 0.347735 -34.211552 0.771656 -0.96303 -17.73337 2.621022 -0.0 -0.0 -0.0 -17.346416 -20.095213 -4.201779 21.757557 -1.638378 3.866428 2e-06 -6.338822 1e-06 -1.697587 -22.591742 -6.194004 -0.0 -6e-06 0.0 80.725235 -77.835449 116.830704 58.099285 -61.331821 -8.396461 19.01424 -0.10715 -0.091613 -2.982927 13.455258 17.437654 22.182106 -20.375889 49.933304 -16.701807 -16.743525 28.476522 -3e-06 -12.690598 -2e-06 16.335001 -17.724958 2.383069 -0.105919 -1.513856 -4.275881 -5.03904 -5.612868 -2.953555 4e-06 -11.020523 -1e-06 -6.111296 -15.89533 -3.840469 -0.0 -0.0 1e-06 -10.283366 -5.680285 -4.341837 11.02829 -11.302403 -2.372635 -1.384268 -14.238576 -6.32012 -0.625436 -26.924183 -3.8276 -4.200212 -50.13298 -3.908955 -13.708521 -7.363473 -3.720938 18.141146 -14.052738 -3.242674 6e-06 -18.787266 -1e-06 -0.429711 -8.456043 2.555503 -1e-06 -0.0 -0.0 -15.923532 -20.094479 -5.473582 30.419205 -7.190825 1.735926 2e-06 -8.162924 -0.0 -1.861902 -22.861464 -6.167941 1e-06 -4e-06 -1e-06 178.962845 -4.080242 -0.163265 15.353391 -0.020847 -0.061747 -82.107216 3.603037 -4.190616 -5.699662 1.5556 2.11996 -1.0 -0.0 -0.0 -0.049549 -3.114236 -12.579233 14.160759 0.055936 -0.006224 -80.919052 -0.010018 -4.773719 -4.51724 0.689826 1.698696 -1.000002 -0.0 -0.0 
0.0 0.0 0.0 0.0 -0.0 0.0 -0.811502 99.832237 -0.590173 89.46035 1.455096 89.98494 -1.214846 -0.736836 -0.005678 -11.639296 -0.571686 -0.000597 18.849955 1.16854 -1.786707 19.980688 0.576877 2.500023 -2.52424 -0.70845 -0.080843 -37.122059 0.605629 -0.944434 6e-06 -0.0 0.0 0.042523 -0.020185 -0.135328 0.124438 -0.037797 -0.159207 0.12109 -0.001965 -0.107468 -88.907532 -74.402489 106.7071 53.321415 -64.051933 -8.412524 26.335661 0.225028 0.329884 -9.746081 -4.209629 10.362985 17.636627 -26.322737 52.411205 -19.466663 -14.395598 29.410395 -1e-06 -8.774821 1e-06 16.934601 -17.77953 5.436635 -0.609776 -1.795654 -3.889327 -4.807087 -11.046811 -2.937852 2e-06 -20.976019 1e-06 -5.019972 -25.033558 -4.031879 5e-06 -1e-06 -0.0 -10.634534 -5.686971 -3.565589 10.573274 -17.922951 -3.1139 3e-06 -13.821211 1e-06 -0.501777 -31.181505 -4.027016 -10.990044 -59.817745 6.763474 -13.982713 -7.150198 -2.875041 13.772728 -8.401491 -3.218243 0.34773 -34.211555 0.771659 -0.96303 -17.733372 2.621022 1e-06 0.0 -0.0 -17.346418 -20.095219 -4.201782 21.757557 -1.638373 3.866425 2e-06 -6.338825 -2e-06 -1.69759 -22.591745 -6.194005 -1e-06 -4e-06 -1e-06 81.01487 -77.973473 116.505486 57.227905 -60.51088 -7.333836 17.081354 -0.235613 -0.127926 -4.470623 11.992637 17.055304 22.182117 -20.375898 49.933323 -16.701815 -16.743528 28.476532 -3e-06 -12.690602 -1e-06 16.465624 -17.648949 2.305672 -0.105919 -1.513855 -4.275884 -5.039041 -5.612873 -2.953555 5e-06 -11.020527 -2e-06 -6.111297 -15.895334 -3.840471 -1e-06 -0.0 1e-06 -10.283371 -5.680288 -4.341838 11.028296 -11.302409 -2.372634 -1.384269 -14.238583 -6.320123 -0.625441 -26.924194 -3.827597 -4.231393 -50.363922 -3.9242 -13.708527 -7.363479 -3.720941 18.141153 -14.052744 -3.242677 7e-06 -18.787275 -1e-06 -0.42971 -8.456045 2.555505 -0.0 -1e-06 -0.0 -15.923536 -20.094486 -5.473584 30.419214 -7.190827 1.735928 3e-06 -8.162927 -1e-06 -1.8619 -22.861473 -6.167945 1e-06 -1e-06 -3e-06 179.021896 -4.059904 -0.183426 15.086242 -0.029157 -0.0055 -81.93483 3.520386 -4.250794 -5.715574 1.565737 2.12024 -0.999998 0.0 -0.0 0.087552 -3.073807 -12.561528 13.731522 0.047509 -0.0057 -80.676453 -0.098914 -4.801984 -4.486847 0.677504 1.698288 -1.000001 -0.0 -0.0 
0.0 0.0 0.0 0.0 -0.0 0.0 -0.757443 99.847328 -0.644537 89.45726 1.464084 90.018204 -1.187544 -0.733979 0.02636 -11.63627 -0.579327 -0.021763 18.896011 1.171191 -1.815289 19.735931 0.556354 2.46425 -2.521529 -0.732462 -0.333246 -37.351738 0.374797 -1.134128 5e-06 0.0 -0.0 0.052766 -0.018138 -0.131939 0.158903 -0.042916 -0.153776 0.162819 0.006642 -0.108044 -87.960686 -74.744675 105.852859 52.804264 -63.372478 -8.660351 24.93684 0.09578 0.263514 -10.916853 -6.215742 10.830084 17.636631 -26.322735 52.411194 -19.46666 -14.395597 29.410389 -1e-06 -8.774821 1e-06 17.021782 -17.676455 5.354984 -0.609776 -1.795653 -3.889324 -4.807087 -11.046811 -2.937852 4e-06 -20.976019 1e-06 -5.019968 -25.03356 -4.03188 5e-06 2e-06 -1e-06 -10.634533 -5.68697 -3.565584 10.573275 -17.922951 -3.113899 2e-06 -13.821211 3e-06 -0.501773 -31.181505 -4.027017 -10.873955 -59.621925 6.628512 -13.982713 -7.150197 -2.875039 13.77273 -8.401493 -3.218242 0.347734 -34.211555 0.771655 -0.96303 -17.733372 2.621021 1e-06 1e-06 -1e-06 -17.346416 -20.095217 -4.201783 21.757557 -1.638375 3.866428 2e-06 -6.338825 0.0 -1.697588 -22.591745 -6.194004 -1e-06 -6e-06 -1e-06 81.38414 -78.291588 116.020493 56.12627 -59.416191 -5.67627 14.828872 -0.376195 -0.149012 -7.010207 9.741165 16.67856 22.182114 -20.3759 49.933323 -16.701813 -16.743528 28.476536 -2e-06 -12.690602 -3e-06 16.617907 -17.550123 2.202524 -0.105918 -1.513856 -4.275882 -5.039041 -5.612872 -2.953553 4e-06 -11.020527 -2e-06 -6.1113 -15.895338 -3.840472 0.0 1e-06 1e-06 -10.283371 -5.680288 -4.341839 11.028296 -11.302406 -2.372635 -1.38427 -14.238581 -6.320119 -0.625438 -26.924191 -3.827601 -4.192563 -50.421268 -4.028501 -13.708526 -7.363477 -3.72094 18.141153 -14.05274 -3.24268 4e-06 -18.787271 -1e-06 -0.429711 -8.456045 2.555503 -1e-06 -1e-06 1e-06 -15.923536 -20.094484 -5.473585 30.419218 -7.190826 1.735926 3e-06 -8.162927 -2e-06 -1.861903 -22.861473 -6.167945 0.0 -5e-06 -2e-06 179.020615 -4.024885 -0.204306 15.020965 -0.041829 0.03601 -81.855751 3.419042 -4.214664 -5.678264 1.543933 2.116268 -0.999999 0.0 -0.0 0.150022 -3.077548 -12.522937 13.553767 0.045001 -0.006494 -80.550926 -0.230788 -4.859829 -4.429622 0.67751 1.697795 -1.000001 -1e-06 -0.0 
0.0 0.0 0.0 0.0 -0.0 0.0 -0.703904 99.850693 -0.698699 89.463524 1.519163 90.057968 -1.177215 -0.766257 0.059791 -11.652678 -0.581593 -0.028683 18.979942 1.231306 -1.823297 19.539299 0.4657 2.425122 -2.517201 -0.770271 -0.587323 -37.646729 0.113502 -1.275572 5e-06 -0.0 -0.0 0.065263 -0.017101 -0.130421 0.187156 -0.050579 -0.150901 0.201634 0.015741 -0.109412 -86.81498 -75.129234 104.801193 51.971008 -62.29591 -8.96244 23.922005 0.033805 0.183371 -12.457992 -8.06706 11.475213 17.636633 -26.322733 52.41119 -19.46666 -14.3956 29.410385 -2e-06 -8.774822 -3e-06 17.040842 -17.598555 5.358002 -0.609776 -1.795654 -3.889328 -4.807087 -11.046809 -2.93785 4e-06 -20.976019 3e-06 -5.019969 -25.033548 -4.031878 7e-06 -1e-06 -1e-06 -10.634534 -5.68697 -3.565587 10.573276 -17.922949 -3.113901 3e-06 -13.821209 2e-06 -0.501772 -31.181505 -4.027017 -10.831506 -59.486309 6.610365 -13.982714 -7.150197 -2.875043 13.772731 -8.401493 -3.218241 0.347734 -34.211552 0.771658 -0.96303 -17.73337 2.621022 2e-06 -0.0 0.0 -17.346416 -20.095215 -4.201782 21.757561 -1.638376 3.866428 2e-06 -6.338825 1e-06 -1.69759 -22.591745 -6.194003 1e-06 -3e-06 -1e-06 81.594849 -78.731018 115.650284 54.823856 -57.993107 -3.275764 12.607026 -0.494174 -0.144228 -10.976099 6.410919 17.554834 22.182117 -20.375898 49.933331 -16.701817 -16.74353 28.476536 -4e-06 -12.690603 1e-06 16.65131 -17.49369 2.137927 -0.105921 -1.513855 -4.275882 -5.039042 -5.612873 -2.953557 4e-06 -11.020526 -2e-06 -6.111296 -15.895338 -3.840473 0.0 1e-06 0.0 -10.283371 -5.680289 -4.341838 11.028296 -11.302406 -2.372635 -1.384269 -14.238583 -6.32012 -0.625438 -26.924192 -3.827602 -4.172466 -50.280632 -4.111503 -13.708524 -7.363475 -3.720941 18.141153 -14.052742 -3.242677 8e-06 -18.787271 -3e-06 -0.429711 -8.456045 2.555503 -1e-06 -1e-06 3e-06 -15.923536 -20.094486 -5.473586 30.419214 -7.190829 1.735927 3e-06 -8.162927 3e-06 -1.861902 -22.861473 -6.167941 2e-06 -4e-06 -3e-06 179.031464 -3.990925 -0.272067 15.032261 -0.047361 0.05867 -81.816109 3.346895 -4.116482 -5.628765 1.515512 2.111245 -1.0 0.0 0.0 0.201299 -3.104652 -12.482556 13.505918 0.040266 -0.014105 -80.491096 -0.349434 -4.969549 -4.41496 0.675191 1.692975 -1.000002 0.0 -0.0 
0.0 0.0 0.0 0.0 -0.0 0.0 -0.646715 99.851028 -0.751962 89.483902 1.60506 90.146706 -1.190486 -0.838111 0.086525 -11.69344 -0.58501 -0.039816 19.079773 1.326351 -1.841231 19.40534 0.316064 2.376344 -2.507979 -0.788118 -0.784443 -38.003967 -0.13206 -1.33862 7e-06 -0.0 -0.0 0.080899 -0.021259 -0.132177 0.228 -0.059869 -0.148999 0.252434 0.016597 -0.116287 -85.394402 -75.4963 103.497902 50.950649 -60.676975 -9.45483 23.501537 0.059257 0.10908 -14.394939 -9.716665 12.3023 17.636631 -26.322727 52.411179 -19.466656 -14.395594 29.410378 0.0 -8.774821 -2e-06 17.026131 -17.558121 5.456577 -0.609776 -1.795653 -3.889327 -4.807089 -11.04681 -2.93785 2e-06 -20.976019 3e-06 -5.019971 -25.033556 -4.03188 6e-06 -1e-06 0.0 -10.634535 -5.686971 -3.56559 10.573271 -17.922953 -3.113895 3e-06 -13.821209 -1e-06 -0.501777 -31.181501 -4.027016 -10.910398 -59.477192 6.766963 -13.982713 -7.150198 -2.875043 13.77273 -8.401492 -3.218241 0.347736 -34.211555 0.771656 -0.963029 -17.73337 2.62102 1e-06 -0.0 -1e-06 -17.34642 -20.095217 -4.20178 21.757557 -1.638373 3.866428 2e-06 -6.338823 -0.0 -1.697593 -22.59174 -6.194005 -0.0 -5e-06 -0.0 81.538788 -79.233086 115.576157 53.379269 -56.107719 -0.264082 11.091843 -0.650666 -0.130169 -16.813988 1.65372 21.242388 22.182119 -20.375898 49.933311 -16.701817 -16.74353 28.47653 -4e-06 -12.690601 3e-06 16.281197 -17.576948 2.21022 -0.105919 -1.513855 -4.275878 -5.039042 -5.612871 -2.953555 4e-06 -11.020526 -1e-06 -6.1113 -15.895334 -3.840469 1e-06 -1e-06 -4e-06 -10.283371 -5.680289 -4.341838 11.028295 -11.302405 -2.372633 -1.384269 -14.238583 -6.320121 -0.625441 -26.924192 -3.827601 -4.242683 -49.814178 -4.118215 -13.708527 -7.363476 -3.720936 18.141153 -14.052739 -3.242676 6e-06 -18.78727 -2e-06 -0.429711 -8.456043 2.555506 -0.0 -0.0 -0.0 -15.923539 -20.094482 -5.473579 30.419218 -7.190825 1.735924 2e-06 -8.162926 2e-06 -1.861902 -22.861473 -6.167945 -0.0 -4e-06 -2e-06 179.067886 -3.948216 -0.352445 15.043357 -0.045934 0.06341 -81.773224 3.356004 -3.957862 -5.592234 1.485693 2.108683 -0.999999 0.0 -0.0 0.280743 -3.147029 -12.474772 13.485701 0.025172 -0.016052 -80.452202 -0.478278 -5.126148 -4.39746 0.671628 1.686609 -1.000002 0.0 -0.0 
